<?xml version="1.0" encoding="UTF-8" standalone="no"?>
<svg
   xmlns:dc="http://purl.org/dc/elements/1.1/"
   xmlns:cc="http://creativecommons.org/ns#"
   xmlns:rdf="http://www.w3.org/1999/02/22-rdf-syntax-ns#"
   xmlns:svg="http://www.w3.org/2000/svg"
   xmlns="http://www.w3.org/2000/svg"
   xmlns:sodipodi="http://sodipodi.sourceforge.net/DTD/sodipodi-0.dtd"
   xmlns:inkscape="http://www.inkscape.org/namespaces/inkscape"
   height="24.101694"
   viewBox="0 0 33.728813 24.101694"
   width="33.728813"
   version="1.1"
   id="svg6"
   sodipodi:docname="remote_camera_logo.svg"
   style="fill:#000000"
   inkscape:version="0.92.5 (2060ec1f9f, 2020-04-08)">
  <metadata
     id="metadata12">
    <rdf:RDF>
      <cc:Work
         rdf:about="">
        <dc:format>image/svg+xml</dc:format>
        <dc:type
           rdf:resource="http://purl.org/dc/dcmitype/StillImage" />
        <dc:title></dc:title>
      </cc:Work>
    </rdf:RDF>
  </metadata>
  <defs
     id="defs10" />
  <sodipodi:namedview
     pagecolor="#ffffff"
     bordercolor="#666666"
     borderopacity="1"
     objecttolerance="10"
     gridtolerance="10"
     guidetolerance="10"
     inkscape:pageopacity="0"
     inkscape:pageshadow="2"
     inkscape:window-width="1955"
     inkscape:window-height="1285"
     id="namedview8"
     showgrid="false"
     inkscape:zoom="9.8333333"
     inkscape:cx="31.152543"
     inkscape:cy="4.881356"
     inkscape:window-x="1140"
     inkscape:window-y="642"
     inkscape:window-maximized="0"
     inkscape:current-layer="svg6" />
  <path
     d="m 42.593221,7.2203389 h 24 V 31.220339 h -24 z"
     id="path2"
     inkscape:connector-curvature="0"
     style="fill:none" />
  <g
     id="g4578"
     transform="translate(42.593221,7.2203389)">
    <path
       inkscape:connector-curvature="0"
       style="fill:#c83737"
       id="path4"
       d="m -42.593221,12.779661 v 2 h 5 v 2 l 3,-3 -3,-3 v 2 z m 9,0 h 5 v 2 h -5 z m -2.01,-11.9999999 c 1.11,0 2.01,-0.9 2.01,-2 0,-1.1 -0.9,-2 -2.01,-2 -1.11,0 -1.99,0.9 -1.99,2 0,1.1 0.89,2 1.99,2 z m 5.01,-8 h -10 c -1.1,0 -2,0.9 -2,2 V 8.7796609 c 0,1.1 0.9,2.0000001 2,2.0000001 h 10 c 1.1,0 2,-0.9000001 2,-2.0000001 V -5.2203389 c 0,-1.1 -0.9,-2 -2,-2 z m 0,15.9999998 h -10 v -2 h 10 z m 0,-3.5 c 0,-1.67 -3.33,-2.5 -5,-2.5 -1.67,0 -5,0.83 -5,2.5 V -5.2203389 h 10 z" />
    <path
       inkscape:connector-curvature="0"
       style="fill:#00005c;fill-opacity:1"
       id="path4-3"
       d="m -8.8644067,12.881356 v 2 h -5.0000003 v 2 l -3,-3 3,-3 v 2 z m -9.0000003,0 h -5 v 2 h 5 z m 2.01,-12.00000005 c -1.11,0 -2.01,-0.9 -2.01,-1.99999995 0,-1.1 0.9,-2 2.01,-2 1.11,0 1.99,0.9 1.99,2 0,1.09999995 -0.89,1.99999995 -1.99,1.99999995 z m -5.01,-7.99999995 h 10 c 1.1000003,0 2.0000003,0.9 2.0000003,2 V 8.8813562 c 0,1.1000001 -0.9,1.9999998 -2.0000003,1.9999998 h -10 c -1.1,0 -2,-0.8999997 -2,-1.9999998 V -5.118644 c 0,-1.1 0.9,-2 2,-2 z m 0,16.0000002 h 10 v -2 h -10 z m 0,-3.5 c 0,-1.67 3.33,-2.5 5,-2.5 1.67,0 5,0.83 5,2.5 V -5.118644 h -10 z" />
  </g>
</svg>
